<svg viewBox="0 0 760 180" xmlns="http://www.w3.org/2000/svg" font-family="system-ui,-apple-system,BlinkMacSystemFont,'Segoe UI',sans-serif">
  <defs>
    <marker id="a2" markerWidth="8" markerHeight="8" refX="6" refY="3" orient="auto">
      <path d="M0,0 L0,6 L8,3 z" fill="#94a3b8"/>
    </marker>
    <marker id="a2skip" markerWidth="8" markerHeight="8" refX="6" refY="3" orient="auto">
      <path d="M0,0 L0,6 L8,3 z" fill="#cbd5e1"/>
    </marker>
    <filter id="s2">
      <feDropShadow dx="0" dy="2" stdDeviation="3" flood-color="#00000018"/>
    </filter>
  </defs>

  <rect width="760" height="180" fill="#f8fafc" rx="10"/>

  <!-- Title -->
  <text x="380" y="26" text-anchor="middle" font-size="13" font-weight="700" fill="#475569" letter-spacing="0.3">Card Lifecycle</text>

  <!-- START dot -->
  <circle cx="46" cy="95" r="12" fill="#1e293b"/>
  <text x="46" y="100" text-anchor="middle" font-size="11" fill="white" font-weight="700">★</text>

  <!-- Arrow: start → extracted -->
  <line x1="59" y1="95" x2="96" y2="95" stroke="#94a3b8" stroke-width="1.5" marker-end="url(#a2)"/>

  <!-- ① extracted -->
  <rect x="100" y="68" width="130" height="54" rx="10" fill="white" stroke="#5b9bd5" stroke-width="2" filter="url(#s2)"/>
  <rect x="100" y="68" width="130" height="20" rx="10" fill="#5b9bd5"/>
  <rect x="100" y="78" width="130" height="10" fill="#5b9bd5"/>
  <text x="165" y="82" text-anchor="middle" font-size="10" font-weight="700" fill="white" letter-spacing="0.5">EXTRACTED</text>
  <text x="165" y="101" text-anchor="middle" font-size="10" fill="#475569">Words ingested</text>
  <text x="165" y="114" text-anchor="middle" font-size="10" fill="#475569">fields empty</text>

  <!-- Label: Ingest -->
  <text x="78" y="88" text-anchor="middle" font-size="9" fill="#5b9bd5" font-style="italic">Ingest</text>

  <!-- Arrow: extracted → enriched -->
  <line x1="231" y1="95" x2="268" y2="95" stroke="#94a3b8" stroke-width="1.5" marker-end="url(#a2)"/>
  <text x="250" y="88" text-anchor="middle" font-size="9" fill="#9b59b6" font-style="italic">Enrich</text>

  <!-- ② enriched -->
  <rect x="272" y="68" width="130" height="54" rx="10" fill="white" stroke="#9b59b6" stroke-width="2" filter="url(#s2)"/>
  <rect x="272" y="68" width="130" height="20" rx="10" fill="#9b59b6"/>
  <rect x="272" y="78" width="130" height="10" fill="#9b59b6"/>
  <text x="337" y="82" text-anchor="middle" font-size="10" font-weight="700" fill="white" letter-spacing="0.5">ENRICHED</text>
  <text x="337" y="101" text-anchor="middle" font-size="10" fill="#475569">AI filled: IPA,</text>
  <text x="337" y="114" text-anchor="middle" font-size="10" fill="#475569">etymology, examples</text>

  <!-- Arrow: enriched → complete -->
  <line x1="403" y1="95" x2="440" y2="95" stroke="#94a3b8" stroke-width="1.5" marker-end="url(#a2)"/>
  <text x="422" y="88" text-anchor="middle" font-size="9" fill="#e07b7b" font-style="italic">Media</text>

  <!-- ③ complete -->
  <rect x="444" y="68" width="130" height="54" rx="10" fill="white" stroke="#6dba6d" stroke-width="2" filter="url(#s2)"/>
  <rect x="444" y="68" width="130" height="20" rx="10" fill="#6dba6d"/>
  <rect x="444" y="78" width="130" height="10" fill="#6dba6d"/>
  <text x="509" y="82" text-anchor="middle" font-size="10" font-weight="700" fill="white" letter-spacing="0.5">COMPLETE</text>
  <text x="509" y="101" text-anchor="middle" font-size="10" fill="#475569">Audio + image</text>
  <text x="509" y="114" text-anchor="middle" font-size="10" fill="#475569">attached</text>

  <!-- Arrow: complete → exported -->
  <line x1="575" y1="95" x2="612" y2="95" stroke="#94a3b8" stroke-width="1.5" marker-end="url(#a2)"/>
  <text x="594" y="88" text-anchor="middle" font-size="9" fill="#D4A854" font-style="italic">Export</text>

  <!-- ④ .apkg -->
  <rect x="616" y="68" width="120" height="54" rx="10" fill="white" stroke="#D4A854" stroke-width="2" filter="url(#s2)"/>
  <rect x="616" y="68" width="120" height="20" rx="10" fill="#D4A854"/>
  <rect x="616" y="78" width="120" height="10" fill="#D4A854"/>
  <text x="676" y="82" text-anchor="middle" font-size="10" font-weight="700" fill="white" letter-spacing="0.5">EXPORTED</text>
  <text x="676" y="101" text-anchor="middle" font-size="10" fill="#475569">Bundled into</text>
  <text x="676" y="114" text-anchor="middle" font-size="10" fill="#475569">.apkg file ✓</text>

  <!-- Skip path: extracted → complete (dashed, via bottom) -->
  <path d="M165 122 Q165 150 337 150 Q509 150 509 122" fill="none" stroke="#cbd5e1" stroke-width="1.5" stroke-dasharray="5,3" marker-end="url(#a2skip)"/>
  <rect x="278" y="142" width="126" height="16" rx="6" fill="#f8fafc"/>
  <text x="341" y="153" text-anchor="middle" font-size="9" fill="#94a3b8">--no-images / --no-audio</text>
</svg>
